<svg xmlns="http://www.w3.org/2000/svg" xmlns:v="https://svgstorm.com"
viewBox = "0 0 1600 1600"
width="48"
height="48">
<g fill="None" fill-opacity="0.0" stroke="#000000" stroke-opacity="0.00" stroke-width="0.3"><path d="
M 0.00 1600.00 
L 1600.00 1600.00
L 1600.00 0.00
L 0.00 0.00
L 0.00 1600.00
M 785.00 404.00 
C 785.00 421.04 785.00 437.94 785.00 455.00 C 785.00 472.06 784.99 488.89 785.00 506.00 C 785.01 523.11 784.99 540.88 785.00 558.00 C 785.01 575.12 784.98 591.91 785.00 609.00 C 785.03 626.09 784.95 642.87 785.00 660.00 C 785.05 677.13 784.88 694.87 785.00 712.00 C 785.12 729.13 784.74 745.89 785.00 763.00 C 785.26 780.11 784.41 796.84 785.00 814.00 C 785.59 831.16 783.72 848.79 785.00 866.00 C 786.28 883.21 782.12 899.73 785.00 917.00 C 787.88 934.27 775.18 939.02 762.92 945.92 C 750.67 952.83 741.71 958.53 730.31 965.31 C 718.90 972.08 709.65 977.85 698.31 984.31 C 686.96 990.76 677.48 997.87 666.00 1004.00
C 663.46 941.39 663.63 878.10 663.00 815.00
C 655.61 820.18 647.80 824.38 640.25 829.25 C 632.70 834.12 624.51 837.98 616.92 842.92 C 609.34 847.87 601.49 852.06 593.77 856.77 C 586.05 861.48 578.51 865.96 570.77 870.77 C 563.03 875.58 555.24 879.52 547.31 884.31 C 539.37 889.09 532.60 893.71 524.25 898.25 C 515.91 902.80 509.24 908.06 500.32 912.32 C 491.41 916.58 487.55 922.24 477.30 926.30 C 467.06 930.37 466.66 942.55 468.00 954.00 C 469.34 965.45 466.57 979.35 468.00 991.00 C 469.43 1002.65 468.43 1015.04 469.00 1027.00 C 469.57 1038.96 469.79 1050.84 470.00 1063.00 C 470.21 1075.16 468.91 1089.07 470.00 1101.00 C 471.09 1112.93 471.64 1122.61 460.77 1126.77 C 449.91 1130.93 446.88 1136.19 437.77 1140.77 C 428.66 1145.35 422.75 1149.70 414.31 1154.31 C 405.86 1158.91 399.49 1163.92 391.26 1168.26 C 383.02 1172.59 376.38 1177.64 368.30 1182.30 C 360.22 1186.97 352.47 1192.29 344.00 1196.00
C 342.12 1020.64 338.88 845.62 338.00 670.00
C 380.84 646.46 421.22 619.35 464.00 596.00
C 463.91 659.19 465.62 721.92 466.00 785.00
C 474.66 778.93 484.63 773.80 494.08 768.08 C 503.53 762.35 513.00 756.12 522.70 750.70 C 532.39 745.27 541.68 739.09 551.25 733.25 C 560.81 727.41 570.83 722.40 580.23 716.23 C 589.63 710.06 599.61 705.36 609.08 699.08 C 618.55 692.79 628.06 688.90 637.10 682.10 C 646.13 675.29 661.34 674.07 661.00 660.00 C 660.66 645.93 660.83 629.53 660.00 615.00 C 659.17 600.47 660.15 583.96 660.00 569.00 C 659.85 554.04 659.22 539.06 659.00 524.00 C 658.78 508.94 659.16 493.13 659.00 478.00
C 701.68 454.41 742.67 427.53 785.00 404.00
M 1262.00 666.00 
C 1262.00 715.67 1262.00 765.33 1262.00 815.00
C 1156.30 752.38 1051.15 689.37 946.00 626.00
C 946.00 640.33 946.00 654.67 946.00 669.00
C 956.43 673.22 965.26 680.59 975.23 685.77 C 985.20 690.95 994.62 698.01 1004.25 703.75 C 1013.88 709.49 1024.20 714.17 1033.69 720.31 C 1043.19 726.44 1053.44 732.34 1063.08 737.92 C 1072.72 743.51 1082.33 749.94 1092.23 755.77 C 1102.13 761.60 1111.33 766.92 1121.08 772.92 C 1130.83 778.92 1140.59 784.51 1150.25 790.75 C 1159.90 797.00 1170.51 801.60 1180.08 807.92 C 1189.64 814.25 1198.95 818.99 1208.70 825.31 C 1218.44 831.62 1228.71 836.16 1238.08 842.92 C 1247.45 849.68 1263.15 851.45 1262.00 866.00 C 1260.85 880.55 1262.52 896.89 1262.00 912.00 C 1261.48 927.11 1262.27 943.63 1262.00 959.00 C 1261.73 974.37 1262.21 990.55 1262.00 1006.00
C 1156.02 942.26 1049.96 878.60 944.00 816.00
C 943.39 879.22 941.94 941.06 941.00 1004.00
C 929.70 998.05 919.99 991.52 908.92 985.08 C 897.85 978.64 888.24 972.50 876.92 966.08 C 865.59 959.67 856.67 952.93 844.75 946.25 C 832.84 939.56 819.25 935.29 822.00 918.00 C 824.75 900.71 820.78 884.21 822.00 867.00 C 823.22 849.79 821.44 832.17 822.00 815.00 C 822.56 797.83 821.75 781.11 822.00 764.00 C 822.25 746.89 821.89 730.14 822.00 713.00 C 822.11 695.86 821.95 678.13 822.00 661.00 C 822.05 643.87 821.98 627.11 822.00 610.00 C 822.02 592.89 821.99 576.15 822.00 559.00 C 822.01 541.85 821.99 524.17 822.00 507.00 C 822.01 489.83 822.00 473.19 822.00 456.00 C 822.00 438.81 822.00 421.23 822.00 404.00
C 969.06 490.38 1115.10 579.98 1262.00 666.00 Z"/>
</g>
<g fill="None" fill-opacity="0.0" stroke="#FAFAF9" stroke-opacity="1.00" stroke-width="0.3"><path d="
M 785.00 404.00 
C 742.67 427.53 701.68 454.41 659.00 478.00
C 659.16 493.13 658.78 508.94 659.00 524.00 C 659.22 539.06 659.85 554.04 660.00 569.00 C 660.15 583.96 659.17 600.47 660.00 615.00 C 660.83 629.53 660.66 645.93 661.00 660.00 C 661.34 674.07 646.13 675.29 637.10 682.10 C 628.06 688.90 618.55 692.79 609.08 699.08 C 599.61 705.36 589.63 710.06 580.23 716.23 C 570.83 722.40 560.81 727.41 551.25 733.25 C 541.68 739.09 532.39 745.27 522.70 750.70 C 513.00 756.12 503.53 762.35 494.08 768.08 C 484.63 773.80 474.66 778.93 466.00 785.00
C 465.62 721.92 463.91 659.19 464.00 596.00
C 421.22 619.35 380.84 646.46 338.00 670.00
C 338.88 845.62 342.12 1020.64 344.00 1196.00
C 352.47 1192.29 360.22 1186.97 368.30 1182.30 C 376.38 1177.64 383.02 1172.59 391.26 1168.26 C 399.49 1163.92 405.86 1158.91 414.31 1154.31 C 422.75 1149.70 428.66 1145.35 437.77 1140.77 C 446.88 1136.19 449.91 1130.93 460.77 1126.77 C 471.64 1122.61 471.09 1112.93 470.00 1101.00 C 468.91 1089.07 470.21 1075.16 470.00 1063.00 C 469.79 1050.84 469.57 1038.96 469.00 1027.00 C 468.43 1015.04 469.43 1002.65 468.00 991.00 C 466.57 979.35 469.34 965.45 468.00 954.00 C 466.66 942.55 467.06 930.37 477.30 926.30 C 487.55 922.24 491.41 916.58 500.32 912.32 C 509.24 908.06 515.91 902.80 524.25 898.25 C 532.60 893.71 539.37 889.09 547.31 884.31 C 555.24 879.52 563.03 875.58 570.77 870.77 C 578.51 865.96 586.05 861.48 593.77 856.77 C 601.49 852.06 609.34 847.87 616.92 842.92 C 624.51 837.98 632.70 834.12 640.25 829.25 C 647.80 824.38 655.61 820.18 663.00 815.00
C 663.63 878.10 663.46 941.39 666.00 1004.00
C 677.48 997.87 686.96 990.76 698.31 984.31 C 709.65 977.85 718.90 972.08 730.31 965.31 C 741.71 958.53 750.67 952.83 762.92 945.92 C 775.18 939.02 787.88 934.27 785.00 917.00 C 782.12 899.73 786.28 883.21 785.00 866.00 C 783.72 848.79 785.59 831.16 785.00 814.00 C 784.41 796.84 785.26 780.11 785.00 763.00 C 784.74 745.89 785.12 729.13 785.00 712.00 C 784.88 694.87 785.05 677.13 785.00 660.00 C 784.95 642.87 785.03 626.09 785.00 609.00 C 784.98 591.91 785.01 575.12 785.00 558.00 C 784.99 540.88 785.01 523.11 785.00 506.00 C 784.99 488.89 785.00 472.06 785.00 455.00 C 785.00 437.94 785.00 421.04 785.00 404.00 Z"/>
</g>
<g fill="None" fill-opacity="0.0" stroke="#FAFAF9" stroke-opacity="1.00" stroke-width="0.3"><path d="
M 1262.00 666.00 
C 1115.10 579.98 969.06 490.38 822.00 404.00
C 822.00 421.23 822.00 438.81 822.00 456.00 C 822.00 473.19 822.01 489.83 822.00 507.00 C 821.99 524.17 822.01 541.85 822.00 559.00 C 821.99 576.15 822.02 592.89 822.00 610.00 C 821.98 627.11 822.05 643.87 822.00 661.00 C 821.95 678.13 822.11 695.86 822.00 713.00 C 821.89 730.14 822.25 746.89 822.00 764.00 C 821.75 781.11 822.56 797.83 822.00 815.00 C 821.44 832.17 823.22 849.79 822.00 867.00 C 820.78 884.21 824.75 900.71 822.00 918.00 C 819.25 935.29 832.84 939.56 844.75 946.25 C 856.67 952.93 865.59 959.67 876.92 966.08 C 888.24 972.50 897.85 978.64 908.92 985.08 C 919.99 991.52 929.70 998.05 941.00 1004.00
C 941.94 941.06 943.39 879.22 944.00 816.00
C 1049.96 878.60 1156.02 942.26 1262.00 1006.00
C 1262.21 990.55 1261.73 974.37 1262.00 959.00 C 1262.27 943.63 1261.48 927.11 1262.00 912.00 C 1262.52 896.89 1260.85 880.55 1262.00 866.00 C 1263.15 851.45 1247.45 849.68 1238.08 842.92 C 1228.71 836.16 1218.44 831.62 1208.70 825.31 C 1198.95 818.99 1189.64 814.25 1180.08 807.92 C 1170.51 801.60 1159.90 797.00 1150.25 790.75 C 1140.59 784.51 1130.83 778.92 1121.08 772.92 C 1111.33 766.92 1102.13 761.60 1092.23 755.77 C 1082.33 749.94 1072.72 743.51 1063.08 737.92 C 1053.44 732.34 1043.19 726.44 1033.69 720.31 C 1024.20 714.17 1013.88 709.49 1004.25 703.75 C 994.62 698.01 985.20 690.95 975.23 685.77 C 965.26 680.59 956.43 673.22 946.00 669.00
C 946.00 654.67 946.00 640.33 946.00 626.00
C 1051.15 689.37 1156.30 752.38 1262.00 815.00
C 1262.00 765.33 1262.00 715.67 1262.00 666.00 Z"/>
</g>
<g fill="#000000" fill-opacity="0.00" stroke="None">
<path d="
M 0.00 1600.00 
L 1600.00 1600.00
L 1600.00 0.00
L 0.00 0.00
L 0.00 1600.00
M 785.00 404.00 
C 785.00 421.04 785.00 437.94 785.00 455.00 C 785.00 472.06 784.99 488.89 785.00 506.00 C 785.01 523.11 784.99 540.88 785.00 558.00 C 785.01 575.12 784.98 591.91 785.00 609.00 C 785.03 626.09 784.95 642.87 785.00 660.00 C 785.05 677.13 784.88 694.87 785.00 712.00 C 785.12 729.13 784.74 745.89 785.00 763.00 C 785.26 780.11 784.41 796.84 785.00 814.00 C 785.59 831.16 783.72 848.79 785.00 866.00 C 786.28 883.21 782.12 899.73 785.00 917.00 C 787.88 934.27 775.18 939.02 762.92 945.92 C 750.67 952.83 741.71 958.53 730.31 965.31 C 718.90 972.08 709.65 977.85 698.31 984.31 C 686.96 990.76 677.48 997.87 666.00 1004.00
C 663.46 941.39 663.63 878.10 663.00 815.00
C 655.61 820.18 647.80 824.38 640.25 829.25 C 632.70 834.12 624.51 837.98 616.92 842.92 C 609.34 847.87 601.49 852.06 593.77 856.77 C 586.05 861.48 578.51 865.96 570.77 870.77 C 563.03 875.58 555.24 879.52 547.31 884.31 C 539.37 889.09 532.60 893.71 524.25 898.25 C 515.91 902.80 509.24 908.06 500.32 912.32 C 491.41 916.58 487.55 922.24 477.30 926.30 C 467.06 930.37 466.66 942.55 468.00 954.00 C 469.34 965.45 466.57 979.35 468.00 991.00 C 469.43 1002.65 468.43 1015.04 469.00 1027.00 C 469.57 1038.96 469.79 1050.84 470.00 1063.00 C 470.21 1075.16 468.91 1089.07 470.00 1101.00 C 471.09 1112.93 471.64 1122.61 460.77 1126.77 C 449.91 1130.93 446.88 1136.19 437.77 1140.77 C 428.66 1145.35 422.75 1149.70 414.31 1154.31 C 405.86 1158.91 399.49 1163.92 391.26 1168.26 C 383.02 1172.59 376.38 1177.64 368.30 1182.30 C 360.22 1186.97 352.47 1192.29 344.00 1196.00
C 342.12 1020.64 338.88 845.62 338.00 670.00
C 380.84 646.46 421.22 619.35 464.00 596.00
C 463.91 659.19 465.62 721.92 466.00 785.00
C 474.66 778.93 484.63 773.80 494.08 768.08 C 503.53 762.35 513.00 756.12 522.70 750.70 C 532.39 745.27 541.68 739.09 551.25 733.25 C 560.81 727.41 570.83 722.40 580.23 716.23 C 589.63 710.06 599.61 705.36 609.08 699.08 C 618.55 692.79 628.06 688.90 637.10 682.10 C 646.13 675.29 661.34 674.07 661.00 660.00 C 660.66 645.93 660.83 629.53 660.00 615.00 C 659.17 600.47 660.15 583.96 660.00 569.00 C 659.85 554.04 659.22 539.06 659.00 524.00 C 658.78 508.94 659.16 493.13 659.00 478.00
C 701.68 454.41 742.67 427.53 785.00 404.00
M 1262.00 666.00 
C 1262.00 715.67 1262.00 765.33 1262.00 815.00
C 1156.30 752.38 1051.15 689.37 946.00 626.00
C 946.00 640.33 946.00 654.67 946.00 669.00
C 956.43 673.22 965.26 680.59 975.23 685.77 C 985.20 690.95 994.62 698.01 1004.25 703.75 C 1013.88 709.49 1024.20 714.17 1033.69 720.31 C 1043.19 726.44 1053.44 732.34 1063.08 737.92 C 1072.72 743.51 1082.33 749.94 1092.23 755.77 C 1102.13 761.60 1111.33 766.92 1121.08 772.92 C 1130.83 778.92 1140.59 784.51 1150.25 790.75 C 1159.90 797.00 1170.51 801.60 1180.08 807.92 C 1189.64 814.25 1198.95 818.99 1208.70 825.31 C 1218.44 831.62 1228.71 836.16 1238.08 842.92 C 1247.45 849.68 1263.15 851.45 1262.00 866.00 C 1260.85 880.55 1262.52 896.89 1262.00 912.00 C 1261.48 927.11 1262.27 943.63 1262.00 959.00 C 1261.73 974.37 1262.21 990.55 1262.00 1006.00
C 1156.02 942.26 1049.96 878.60 944.00 816.00
C 943.39 879.22 941.94 941.06 941.00 1004.00
C 929.70 998.05 919.99 991.52 908.92 985.08 C 897.85 978.64 888.24 972.50 876.92 966.08 C 865.59 959.67 856.67 952.93 844.75 946.25 C 832.84 939.56 819.25 935.29 822.00 918.00 C 824.75 900.71 820.78 884.21 822.00 867.00 C 823.22 849.79 821.44 832.17 822.00 815.00 C 822.56 797.83 821.75 781.11 822.00 764.00 C 822.25 746.89 821.89 730.14 822.00 713.00 C 822.11 695.86 821.95 678.13 822.00 661.00 C 822.05 643.87 821.98 627.11 822.00 610.00 C 822.02 592.89 821.99 576.15 822.00 559.00 C 822.01 541.85 821.99 524.17 822.00 507.00 C 822.01 489.83 822.00 473.19 822.00 456.00 C 822.00 438.81 822.00 421.23 822.00 404.00
C 969.06 490.38 1115.10 579.98 1262.00 666.00 Z"/>
</g>
<g fill="#FAFAF9" fill-opacity="1.00" stroke="None">
<path d="
M 785.00 404.00 
C 742.67 427.53 701.68 454.41 659.00 478.00
C 659.16 493.13 658.78 508.94 659.00 524.00 C 659.22 539.06 659.85 554.04 660.00 569.00 C 660.15 583.96 659.17 600.47 660.00 615.00 C 660.83 629.53 660.66 645.93 661.00 660.00 C 661.34 674.07 646.13 675.29 637.10 682.10 C 628.06 688.90 618.55 692.79 609.08 699.08 C 599.61 705.36 589.63 710.06 580.23 716.23 C 570.83 722.40 560.81 727.41 551.25 733.25 C 541.68 739.09 532.39 745.27 522.70 750.70 C 513.00 756.12 503.53 762.35 494.08 768.08 C 484.63 773.80 474.66 778.93 466.00 785.00
C 465.62 721.92 463.91 659.19 464.00 596.00
C 421.22 619.35 380.84 646.46 338.00 670.00
C 338.88 845.62 342.12 1020.64 344.00 1196.00
C 352.47 1192.29 360.22 1186.97 368.30 1182.30 C 376.38 1177.64 383.02 1172.59 391.26 1168.26 C 399.49 1163.92 405.86 1158.91 414.31 1154.31 C 422.75 1149.70 428.66 1145.35 437.77 1140.77 C 446.88 1136.19 449.91 1130.93 460.77 1126.77 C 471.64 1122.61 471.09 1112.93 470.00 1101.00 C 468.91 1089.07 470.21 1075.16 470.00 1063.00 C 469.79 1050.84 469.57 1038.96 469.00 1027.00 C 468.43 1015.04 469.43 1002.65 468.00 991.00 C 466.57 979.35 469.34 965.45 468.00 954.00 C 466.66 942.55 467.06 930.37 477.30 926.30 C 487.55 922.24 491.41 916.58 500.32 912.32 C 509.24 908.06 515.91 902.80 524.25 898.25 C 532.60 893.71 539.37 889.09 547.31 884.31 C 555.24 879.52 563.03 875.58 570.77 870.77 C 578.51 865.96 586.05 861.48 593.77 856.77 C 601.49 852.06 609.34 847.87 616.92 842.92 C 624.51 837.98 632.70 834.12 640.25 829.25 C 647.80 824.38 655.61 820.18 663.00 815.00
C 663.63 878.10 663.46 941.39 666.00 1004.00
C 677.48 997.87 686.96 990.76 698.31 984.31 C 709.65 977.85 718.90 972.08 730.31 965.31 C 741.71 958.53 750.67 952.83 762.92 945.92 C 775.18 939.02 787.88 934.27 785.00 917.00 C 782.12 899.73 786.28 883.21 785.00 866.00 C 783.72 848.79 785.59 831.16 785.00 814.00 C 784.41 796.84 785.26 780.11 785.00 763.00 C 784.74 745.89 785.12 729.13 785.00 712.00 C 784.88 694.87 785.05 677.13 785.00 660.00 C 784.95 642.87 785.03 626.09 785.00 609.00 C 784.98 591.91 785.01 575.12 785.00 558.00 C 784.99 540.88 785.01 523.11 785.00 506.00 C 784.99 488.89 785.00 472.06 785.00 455.00 C 785.00 437.94 785.00 421.04 785.00 404.00 Z"/>
</g>
<g fill="#FAFAF9" fill-opacity="1.00" stroke="None">
<path d="
M 1262.00 666.00 
C 1115.10 579.98 969.06 490.38 822.00 404.00
C 822.00 421.23 822.00 438.81 822.00 456.00 C 822.00 473.19 822.01 489.83 822.00 507.00 C 821.99 524.17 822.01 541.85 822.00 559.00 C 821.99 576.15 822.02 592.89 822.00 610.00 C 821.98 627.11 822.05 643.87 822.00 661.00 C 821.95 678.13 822.11 695.86 822.00 713.00 C 821.89 730.14 822.25 746.89 822.00 764.00 C 821.75 781.11 822.56 797.83 822.00 815.00 C 821.44 832.17 823.22 849.79 822.00 867.00 C 820.78 884.21 824.75 900.71 822.00 918.00 C 819.25 935.29 832.84 939.56 844.75 946.25 C 856.67 952.93 865.59 959.67 876.92 966.08 C 888.24 972.50 897.85 978.64 908.92 985.08 C 919.99 991.52 929.70 998.05 941.00 1004.00
C 941.94 941.06 943.39 879.22 944.00 816.00
C 1049.96 878.60 1156.02 942.26 1262.00 1006.00
C 1262.21 990.55 1261.73 974.37 1262.00 959.00 C 1262.27 943.63 1261.48 927.11 1262.00 912.00 C 1262.52 896.89 1260.85 880.55 1262.00 866.00 C 1263.15 851.45 1247.45 849.68 1238.08 842.92 C 1228.71 836.16 1218.44 831.62 1208.70 825.31 C 1198.95 818.99 1189.64 814.25 1180.08 807.92 C 1170.51 801.60 1159.90 797.00 1150.25 790.75 C 1140.59 784.51 1130.83 778.92 1121.08 772.92 C 1111.33 766.92 1102.13 761.60 1092.23 755.77 C 1082.33 749.94 1072.72 743.51 1063.08 737.92 C 1053.44 732.34 1043.19 726.44 1033.69 720.31 C 1024.20 714.17 1013.88 709.49 1004.25 703.75 C 994.62 698.01 985.20 690.95 975.23 685.77 C 965.26 680.59 956.43 673.22 946.00 669.00
C 946.00 654.67 946.00 640.33 946.00 626.00
C 1051.15 689.37 1156.30 752.38 1262.00 815.00
C 1262.00 765.33 1262.00 715.67 1262.00 666.00 Z"/>
</g>
</svg>